<svg width="60" height="60" viewBox="0 0 60 60" fill="none" xmlns="http://www.w3.org/2000/svg">
<circle cx="30" cy="30" r="30" fill="#E1C4B9"/>
<path d="M28.3335 16.6669H16.6668C15.7828 16.6669 14.9349 17.0181 14.3098 17.6432C13.6847 18.2683 13.3335 19.1162 13.3335 20.0002V43.3335C13.3335 44.2176 13.6847 45.0654 14.3098 45.6906C14.9349 46.3157 15.7828 46.6669 16.6668 46.6669H40.0002C40.8842 46.6669 41.7321 46.3157 42.3572 45.6906C42.9823 45.0654 43.3335 44.2176 43.3335 43.3335V31.6669M40.8335 14.1669C41.4965 13.5038 42.3958 13.1313 43.3335 13.1313C44.2712 13.1313 45.1705 13.5038 45.8335 14.1669C46.4965 14.8299 46.869 15.7292 46.869 16.6669C46.869 17.6046 46.4965 18.5038 45.8335 19.1669L30.0002 35.0002L23.3335 36.6669L25.0002 30.0002L40.8335 14.1669Z" stroke="#1E1E1E" stroke-width="3" stroke-linecap="round" stroke-linejoin="round"/>
</svg>
