<svg width="60" height="60" viewBox="0 0 60 60" fill="none" xmlns="http://www.w3.org/2000/svg">
<circle cx="30" cy="30" r="30" fill="#B96769"/>
<path d="M12 18H16M16 18H48M16 18V46C16 47.0609 16.4214 48.0783 17.1716 48.8284C17.9217 49.5786 18.9391 50 20 50H40C41.0609 50 42.0783 49.5786 42.8284 48.8284C43.5786 48.0783 44 47.0609 44 46V18M22 18V14C22 12.9391 22.4214 11.9217 23.1716 11.1716C23.9217 10.4214 24.9391 10 26 10H34C35.0609 10 36.0783 10.4214 36.8284 11.1716C37.5786 11.9217 38 12.9391 38 14V18M26 28V40M34 28V40" stroke="#1E1E1E" stroke-width="3" stroke-linecap="round" stroke-linejoin="round"/>
</svg>
